<mxfile host="app.diagrams.net" modified="2024-01-15T15:20:36.194Z" agent="Mozilla/5.0 (Windows NT 10.0; Win64; x64) AppleWebKit/537.36 (KHTML, like Gecko) Chrome/120.0.0.0 Safari/537.36 Edg/120.0.0.0" etag="zp5C-MI-v3kVvHMWKBaN" version="22.1.18" type="device">
  <diagram name="Trang-1" id="vkpZJC_5ZM5p8UWCeMVH">
    <mxGraphModel dx="1066" dy="723" grid="1" gridSize="10" guides="1" tooltips="1" connect="1" arrows="1" fold="1" page="1" pageScale="1" pageWidth="3300" pageHeight="4681" background="#000000" math="0" shadow="0">
      <root>
        <mxCell id="0" />
        <mxCell id="1" parent="0" />
        <mxCell id="pop_hScy8VfvRH4sNQpm-1" value="." style="shape=umlActor;verticalLabelPosition=bottom;verticalAlign=top;html=1;outlineConnect=0;sketch=1;hachureGap=4;jiggle=2;curveFitting=1;fontFamily=Times New Roman;fontSize=20;strokeColor=#FFFFFF;align=center;gradientColor=default;" parent="1" vertex="1">
          <mxGeometry x="230" y="370" width="40" height="70" as="geometry" />
        </mxCell>
        <mxCell id="kL56ou5OttKZW1P1Jcm3-2" value="&lt;font face=&quot;Times New Roman&quot; color=&quot;#ffffff&quot;&gt;Admin&lt;/font&gt;" style="text;html=1;strokeColor=none;fillColor=none;align=center;verticalAlign=middle;whiteSpace=wrap;rounded=0;fontSize=20;fontFamily=Architects Daughter;" parent="1" vertex="1">
          <mxGeometry x="205" y="460" width="90" height="30" as="geometry" />
        </mxCell>
        <mxCell id="kL56ou5OttKZW1P1Jcm3-3" value="&lt;font face=&quot;Times New Roman&quot; color=&quot;#ffffff&quot;&gt;Khách Hàng&lt;/font&gt;" style="text;html=1;strokeColor=none;fillColor=none;align=center;verticalAlign=middle;whiteSpace=wrap;rounded=0;fontSize=20;fontFamily=Architects Daughter;" parent="1" vertex="1">
          <mxGeometry x="697.5" y="420" width="105" height="30" as="geometry" />
        </mxCell>
        <mxCell id="kL56ou5OttKZW1P1Jcm3-4" value="Actor" style="shape=umlActor;verticalLabelPosition=bottom;verticalAlign=top;html=1;outlineConnect=0;sketch=1;hachureGap=4;jiggle=2;curveFitting=1;fontFamily=Times New Roman;fontSize=20;strokeColor=#FFFFFF;align=center;gradientColor=default;" parent="1" vertex="1">
          <mxGeometry x="730" y="310" width="40" height="70" as="geometry" />
        </mxCell>
        <mxCell id="kL56ou5OttKZW1P1Jcm3-11" value="Đăng Nhập" style="ellipse;whiteSpace=wrap;html=1;fillColor=#1ba1e2;strokeColor=#006EAF;fontColor=#ffffff;" parent="1" vertex="1">
          <mxGeometry x="265" y="240" width="85" height="50" as="geometry" />
        </mxCell>
        <mxCell id="0DSdsD7pxTPsUUOEZxlg-1" value="" style="endArrow=classic;html=1;rounded=0;strokeColor=#FFFFFF;" edge="1" parent="1" target="kL56ou5OttKZW1P1Jcm3-11">
          <mxGeometry width="50" height="50" relative="1" as="geometry">
            <mxPoint x="260" y="330" as="sourcePoint" />
            <mxPoint x="320" y="345" as="targetPoint" />
          </mxGeometry>
        </mxCell>
        <mxCell id="0DSdsD7pxTPsUUOEZxlg-2" value="" style="endArrow=classic;html=1;rounded=0;strokeColor=#FFFFFF;" edge="1" parent="1">
          <mxGeometry width="50" height="50" relative="1" as="geometry">
            <mxPoint x="700" y="320" as="sourcePoint" />
            <mxPoint x="680" y="300" as="targetPoint" />
          </mxGeometry>
        </mxCell>
        <mxCell id="0DSdsD7pxTPsUUOEZxlg-3" value="Xem Sản Phẩm" style="ellipse;whiteSpace=wrap;html=1;fillColor=#1ba1e2;strokeColor=#006EAF;fontColor=#ffffff;" vertex="1" parent="1">
          <mxGeometry x="350" y="270" width="115" height="50" as="geometry" />
        </mxCell>
        <mxCell id="0DSdsD7pxTPsUUOEZxlg-4" value="Mua Sản Phẩm" style="ellipse;whiteSpace=wrap;html=1;fillColor=#1ba1e2;strokeColor=#006EAF;fontColor=#ffffff;" vertex="1" parent="1">
          <mxGeometry x="830" y="220" width="115" height="50" as="geometry" />
        </mxCell>
        <mxCell id="0DSdsD7pxTPsUUOEZxlg-5" value="Đánh giá sản phẩm" style="ellipse;whiteSpace=wrap;html=1;fillColor=#1ba1e2;strokeColor=#006EAF;fontColor=#ffffff;" vertex="1" parent="1">
          <mxGeometry x="910" y="340" width="125" height="50" as="geometry" />
        </mxCell>
        <mxCell id="0DSdsD7pxTPsUUOEZxlg-7" style="edgeStyle=orthogonalEdgeStyle;rounded=0;orthogonalLoop=1;jettySize=auto;html=1;exitX=0.5;exitY=1;exitDx=0;exitDy=0;" edge="1" parent="1" source="0DSdsD7pxTPsUUOEZxlg-6">
          <mxGeometry relative="1" as="geometry">
            <mxPoint x="460" y="500" as="targetPoint" />
          </mxGeometry>
        </mxCell>
        <mxCell id="0DSdsD7pxTPsUUOEZxlg-6" value="Tìm kiếm sản phẩm" style="ellipse;whiteSpace=wrap;html=1;fillColor=#1ba1e2;strokeColor=#006EAF;fontColor=#ffffff;" vertex="1" parent="1">
          <mxGeometry x="860" y="430" width="125" height="50" as="geometry" />
        </mxCell>
        <mxCell id="0DSdsD7pxTPsUUOEZxlg-8" value="Quản lý đơn hàng" style="ellipse;whiteSpace=wrap;html=1;fillColor=#1ba1e2;strokeColor=#006EAF;fontColor=#ffffff;" vertex="1" parent="1">
          <mxGeometry x="360" y="480" width="125" height="50" as="geometry" />
        </mxCell>
        <mxCell id="0DSdsD7pxTPsUUOEZxlg-9" value="" style="endArrow=classic;html=1;rounded=0;strokeColor=#FFFFFF;" edge="1" parent="1" target="0DSdsD7pxTPsUUOEZxlg-4">
          <mxGeometry width="50" height="50" relative="1" as="geometry">
            <mxPoint x="780" y="320" as="sourcePoint" />
            <mxPoint x="460" y="356" as="targetPoint" />
          </mxGeometry>
        </mxCell>
        <mxCell id="0DSdsD7pxTPsUUOEZxlg-11" value="" style="endArrow=classic;html=1;rounded=0;strokeColor=#FFFFFF;" edge="1" parent="1" target="0DSdsD7pxTPsUUOEZxlg-6">
          <mxGeometry width="50" height="50" relative="1" as="geometry">
            <mxPoint x="800" y="380" as="sourcePoint" />
            <mxPoint x="460" y="358" as="targetPoint" />
          </mxGeometry>
        </mxCell>
        <mxCell id="0DSdsD7pxTPsUUOEZxlg-12" value="" style="endArrow=classic;html=1;rounded=0;strokeColor=#FFFFFF;" edge="1" parent="1" target="0DSdsD7pxTPsUUOEZxlg-5">
          <mxGeometry width="50" height="50" relative="1" as="geometry">
            <mxPoint x="820" y="350" as="sourcePoint" />
            <mxPoint x="470" y="368" as="targetPoint" />
          </mxGeometry>
        </mxCell>
        <mxCell id="0DSdsD7pxTPsUUOEZxlg-13" value="" style="endArrow=classic;html=1;rounded=0;strokeColor=#FFFFFF;" edge="1" parent="1">
          <mxGeometry width="50" height="50" relative="1" as="geometry">
            <mxPoint x="710" y="380" as="sourcePoint" />
            <mxPoint x="600" y="430" as="targetPoint" />
          </mxGeometry>
        </mxCell>
        <mxCell id="0DSdsD7pxTPsUUOEZxlg-14" value="" style="endArrow=classic;html=1;rounded=0;strokeColor=#FFFFFF;" edge="1" parent="1">
          <mxGeometry width="50" height="50" relative="1" as="geometry">
            <mxPoint x="710" y="290" as="sourcePoint" />
            <mxPoint x="710" y="240" as="targetPoint" />
          </mxGeometry>
        </mxCell>
        <mxCell id="0DSdsD7pxTPsUUOEZxlg-15" value="" style="endArrow=classic;html=1;rounded=0;strokeColor=#FFFFFF;" edge="1" parent="1" target="0DSdsD7pxTPsUUOEZxlg-3">
          <mxGeometry width="50" height="50" relative="1" as="geometry">
            <mxPoint x="310" y="360" as="sourcePoint" />
            <mxPoint x="430" y="290" as="targetPoint" />
            <Array as="points">
              <mxPoint x="370" y="320" />
            </Array>
          </mxGeometry>
        </mxCell>
        <mxCell id="0DSdsD7pxTPsUUOEZxlg-16" value="" style="endArrow=classic;html=1;rounded=0;strokeColor=#FFFFFF;entryX=0;entryY=0;entryDx=0;entryDy=0;" edge="1" parent="1" target="0DSdsD7pxTPsUUOEZxlg-8">
          <mxGeometry width="50" height="50" relative="1" as="geometry">
            <mxPoint x="300" y="440" as="sourcePoint" />
            <mxPoint x="310" y="430" as="targetPoint" />
          </mxGeometry>
        </mxCell>
        <mxCell id="0DSdsD7pxTPsUUOEZxlg-18" value="Quản lý loại hàng" style="ellipse;whiteSpace=wrap;html=1;fillColor=#1ba1e2;strokeColor=#006EAF;fontColor=#ffffff;" vertex="1" parent="1">
          <mxGeometry x="20" y="370" width="115" height="50" as="geometry" />
        </mxCell>
        <mxCell id="0DSdsD7pxTPsUUOEZxlg-19" value="Quản lý mặt hàng" style="ellipse;whiteSpace=wrap;html=1;fillColor=#1ba1e2;strokeColor=#006EAF;fontColor=#ffffff;" vertex="1" parent="1">
          <mxGeometry x="80" y="260" width="115" height="50" as="geometry" />
        </mxCell>
        <mxCell id="0DSdsD7pxTPsUUOEZxlg-20" value="Quản lý tài khoản" style="ellipse;whiteSpace=wrap;html=1;fillColor=#1ba1e2;strokeColor=#006EAF;fontColor=#ffffff;" vertex="1" parent="1">
          <mxGeometry x="60" y="480" width="115" height="50" as="geometry" />
        </mxCell>
        <mxCell id="0DSdsD7pxTPsUUOEZxlg-21" value="" style="endArrow=classic;html=1;rounded=0;strokeColor=#FFFFFF;" edge="1" parent="1" target="0DSdsD7pxTPsUUOEZxlg-19">
          <mxGeometry width="50" height="50" relative="1" as="geometry">
            <mxPoint x="200" y="340" as="sourcePoint" />
            <mxPoint x="369" y="298" as="targetPoint" />
          </mxGeometry>
        </mxCell>
        <mxCell id="0DSdsD7pxTPsUUOEZxlg-22" value="" style="endArrow=classic;html=1;rounded=0;strokeColor=#FFFFFF;" edge="1" parent="1" target="0DSdsD7pxTPsUUOEZxlg-20">
          <mxGeometry width="50" height="50" relative="1" as="geometry">
            <mxPoint x="200" y="430" as="sourcePoint" />
            <mxPoint x="379" y="308" as="targetPoint" />
          </mxGeometry>
        </mxCell>
        <mxCell id="0DSdsD7pxTPsUUOEZxlg-23" value="" style="endArrow=classic;html=1;rounded=0;strokeColor=#FFFFFF;" edge="1" parent="1" target="0DSdsD7pxTPsUUOEZxlg-18">
          <mxGeometry width="50" height="50" relative="1" as="geometry">
            <mxPoint x="200" y="390" as="sourcePoint" />
            <mxPoint x="327" y="226" as="targetPoint" />
          </mxGeometry>
        </mxCell>
        <mxCell id="0DSdsD7pxTPsUUOEZxlg-25" value="Đăng Ký" style="ellipse;whiteSpace=wrap;html=1;fillColor=#1ba1e2;strokeColor=#006EAF;fontColor=#ffffff;" vertex="1" parent="1">
          <mxGeometry x="390" y="370" width="85" height="50" as="geometry" />
        </mxCell>
        <mxCell id="0DSdsD7pxTPsUUOEZxlg-27" value="" style="endArrow=classic;html=1;rounded=0;strokeColor=#FFFFFF;" edge="1" parent="1">
          <mxGeometry width="50" height="50" relative="1" as="geometry">
            <mxPoint x="680" y="350" as="sourcePoint" />
            <mxPoint x="600" y="360" as="targetPoint" />
          </mxGeometry>
        </mxCell>
        <mxCell id="0DSdsD7pxTPsUUOEZxlg-28" value="" style="endArrow=classic;html=1;rounded=0;strokeColor=#FFFFFF;" edge="1" parent="1" target="0DSdsD7pxTPsUUOEZxlg-25">
          <mxGeometry width="50" height="50" relative="1" as="geometry">
            <mxPoint x="320" y="385" as="sourcePoint" />
            <mxPoint x="320" y="380" as="targetPoint" />
          </mxGeometry>
        </mxCell>
      </root>
    </mxGraphModel>
  </diagram>
</mxfile>
